<?xml version="1.0" encoding="UTF-8"?>
<!DOCTYPE svg PUBLIC "-//W3C//DTD SVG 1.1//EN" "http://www.w3.org/Graphics/SVG/1.1/DTD/svg11.dtd">
<!-- Creator: CorelDRAW X8 -->
<svg xmlns="http://www.w3.org/2000/svg" xml:space="preserve" width="50px" height="50px" version="1.1" style="shape-rendering:geometricPrecision; text-rendering:geometricPrecision; image-rendering:optimizeQuality; fill-rule:evenodd; clip-rule:evenodd"
viewBox="0 0 50 50"
 xmlns:xlink="http://www.w3.org/1999/xlink">
 <defs>
  <style type="text/css">
   <![CDATA[
    .fil0 {fill:none}
    .fil1 {fill:black}
   ]]>
  </style>
 </defs>
 <g id="Слой_x0020_1">
  <metadata id="CorelCorpID_0Corel-Layer"/>
  <rect class="fil0" width="50" height="50"/>
  <path class="fil1" d="M18 20c1,0 3,1 3,1 1,2 0,3 -1,4 -1,1 -1,4 -3,5 -2,0 -3,-1 -3,-1 -1,-3 2,-8 4,-9zm-9 14c0,3 0,4 1,7 3,5 8,9 14,9 5,0 9,-2 12,-5 3,-3 5,-6 5,-11 0,-5 -4,-13 -7,-18 0,-1 0,-2 -1,-2l-8 -14 -2 4c-4,6 -6,9 -9,16 -2,3 -5,10 -5,14z"/>
 </g>
</svg>
