<?xml version="1.0" encoding="UTF-8"?>
<!DOCTYPE svg PUBLIC "-//W3C//DTD SVG 1.1//EN" "http://www.w3.org/Graphics/SVG/1.1/DTD/svg11.dtd">
<!-- Creator: CorelDRAW X8 -->
<svg xmlns="http://www.w3.org/2000/svg" xml:space="preserve" width="50px" height="50px" version="1.1" style="shape-rendering:geometricPrecision; text-rendering:geometricPrecision; image-rendering:optimizeQuality; fill-rule:evenodd; clip-rule:evenodd"
viewBox="0 0 50 50"
 xmlns:xlink="http://www.w3.org/1999/xlink">
 <defs>
  <style type="text/css">
   <![CDATA[
    .fil0 {fill:none}
    .fil1 {fill:black}
   ]]>
  </style>
 </defs>
 <g id="Слой_x0020_1">
  <metadata id="CorelCorpID_0Corel-Layer"/>
  <rect class="fil0" width="49.9994" height="49.9994"/>
  <path class="fil1" d="M0 47c0,2 1,2 2,2l46 0c1,0 2,-1 2,-1l0 -1c0,-1 -1,-2 -2,-2l-45 0c-2,0 -3,1 -3,2zm13 -29c0,-3 2,-6 3,-7 0,-1 1,-1 1,-1 4,-4 10,-5 14,-2l2 2c0,0 0,0 1,0 0,1 0,1 0,1 1,2 2,3 2,4 1,3 0,6 0,8 -1,0 -1,0 -1,1 -1,1 -1,1 -2,2 -1,1 -2,2 -3,2 -5,3 -11,1 -14,-4 -2,-1 -3,-4 -3,-6zm12 -17l1 0c2,0 4,0 6,1 3,2 5,3 7,6 4,5 4,11 2,16 -1,2 -1,3 -2,5 -1,0 -2,2 -3,2 -1,1 -4,3 -5,3 0,6 -1,5 1,5l16 0c1,0 2,1 2,2l0 0c0,1 -1,2 -3,2l-44 0c-2,0 -3,-1 -3,-2l0 0c0,-1 1,-2 1,-2l17 0c2,0 1,0 1,-2 0,-1 0,-2 0,-3 -1,0 -4,-2 -5,-3 -1,-1 -1,-1 -2,-1 -1,-2 -2,-4 -3,-6 -1,-3 -1,-4 -1,-7 0,-1 0,-1 0,-2 0,-2 2,-5 3,-7 1,-2 3,-4 5,-5 3,-2 6,-2 9,-2zm0 21c1,0 1,0 2,-1 0,0 1,0 1,-1 1,-1 1,-1 1,-3 0,0 4,-5 4,-6 0,-1 -1,-2 -2,-1l-2 2c0,0 0,0 -1,0 0,1 -1,1 -2,2 -1,1 -1,0 -2,0 -5,2 -3,8 1,8z"/>
 </g>
</svg>
