<?xml version="1.0" encoding="UTF-8"?>
<!DOCTYPE svg PUBLIC "-//W3C//DTD SVG 1.1//EN" "http://www.w3.org/Graphics/SVG/1.1/DTD/svg11.dtd">
<!-- Creator: CorelDRAW X8 -->
<svg xmlns="http://www.w3.org/2000/svg" xml:space="preserve" width="50px" height="150px" version="1.1" style="shape-rendering:geometricPrecision; text-rendering:geometricPrecision; image-rendering:optimizeQuality; fill-rule:evenodd; clip-rule:evenodd"
viewBox="0 0 50 150"
 xmlns:xlink="http://www.w3.org/1999/xlink">
 <defs>
  <style type="text/css">
   <![CDATA[
    .fil0 {fill:none}
    .fil1 {fill:black}
   ]]>
  </style>
 </defs>
 <g id="Слой_x0020_1">
  <metadata id="CorelCorpID_0Corel-Layer"/>
  <rect class="fil0" width="50" height="150.001"/>
  <path class="fil1" d="M40 105l0 -90c0,-8 -7,-15 -15,-15 -8,0 -15,7 -15,15l0 90c-6,5 -10,12 -10,20 0,14 11,25 25,25 14,0 25,-11 25,-25 0,-8 -4,-15 -10,-20zm-15 40c-11,0 -20,-9 -20,-20 0,-7 4,-14 10,-17l0 -93c0,-5 4,-10 10,-10 5,0 10,5 10,10l0 93c6,3 10,10 10,17 0,11 -9,20 -20,20zm5 -34c0,0 0,0 0,-1l0 -25c0,-3 -2,-5 -5,-5 -3,0 -5,2 -5,5l0 25c0,1 0,1 0,1 -6,2 -10,8 -10,14 0,9 7,15 15,15 9,0 15,-6 15,-15 0,-6 -4,-12 -10,-14z"/>
 </g>
</svg>
