<?xml version="1.0" encoding="UTF-8"?>
<!DOCTYPE svg PUBLIC "-//W3C//DTD SVG 1.1//EN" "http://www.w3.org/Graphics/SVG/1.1/DTD/svg11.dtd">
<!-- Creator: CorelDRAW X8 -->
<svg xmlns="http://www.w3.org/2000/svg" xml:space="preserve" width="50px" height="50px" version="1.1" style="shape-rendering:geometricPrecision; text-rendering:geometricPrecision; image-rendering:optimizeQuality; fill-rule:evenodd; clip-rule:evenodd"
viewBox="0 0 50 50"
 xmlns:xlink="http://www.w3.org/1999/xlink">
 <defs>
  <style type="text/css">
   <![CDATA[
    .fil0 {fill:none}
    .fil1 {fill:black}
   ]]>
  </style>
 </defs>
 <g id="Слой_x0020_1">
  <metadata id="CorelCorpID_0Corel-Layer"/>
  <rect class="fil0" width="50" height="50"/>
  <path class="fil1" d="M37 30l-26 0 0 1 26 0c1,0 2,1 2,2 0,1 -1,2 -2,2 -1,0 -2,-1 -2,-2l-2 0c0,2 2,4 4,4 2,0 4,-2 4,-4 0,-2 -2,-3 -4,-3zm-4 -11c0,-4 -2,-6 -5,-6 -3,0 -6,2 -6,6l2 0c0,-3 2,-4 4,-4 2,0 3,1 3,4 0,2 -1,3 -3,3l-22 0 0 2 22 0c3,0 5,-2 5,-5zm10 -6c-4,0 -8,3 -8,7l2 0c0,-3 2,-5 6,-5 3,0 5,2 5,5 0,4 -2,6 -5,6l-43 0 0 2 43 0c4,0 7,-4 7,-8 0,-4 -3,-7 -7,-7z"/>
 </g>
</svg>
